<svg width="1658" height="683" xmlns="http://www.w3.org/2000/svg" xmlns:xlink="http://www.w3.org/1999/xlink" overflow="hidden"><defs><clipPath id="clip0"><rect x="44" y="17" width="1658" height="683"/></clipPath></defs><g clip-path="url(#clip0)" transform="translate(-44 -17)"><path d="M348.5 654.5 1700.67 654.5" stroke="#000000" stroke-miterlimit="8" stroke-dasharray="4 3" fill="none" fill-rule="evenodd"/><path d="M0 0 1.94236 189.02" stroke="#000000" stroke-width="3" stroke-miterlimit="8" fill="none" fill-rule="evenodd" transform="matrix(-1 0 0 1 162.442 49.5001)"/><path d="M162.5 230.5 162.5 613.331" stroke="#0070C0" stroke-width="3" stroke-miterlimit="8" fill="none" fill-rule="evenodd"/><path d="M0 0 1352.17 0.000104987" stroke="#000000" stroke-miterlimit="8" stroke-dasharray="4 3" fill="none" fill-rule="evenodd" transform="matrix(1 0 0 -1 348.5 226.5)"/><path d="M0 0 1165.65 0.000104987" stroke="#000000" stroke-miterlimit="8" stroke-dasharray="4 3" fill="none" fill-rule="evenodd" transform="matrix(1 0 0 -1 535.5 316.5)"/><path d="M0 0 1165.65 0.000209974" stroke="#000000" stroke-miterlimit="8" stroke-dasharray="4 3" fill="none" fill-rule="evenodd" transform="matrix(1 0 0 -1 535.5 407.5)"/><path d="M0 0 1164.64 0.000104987" stroke="#000000" stroke-miterlimit="8" stroke-dasharray="4 3" fill="none" fill-rule="evenodd" transform="matrix(1 0 0 -1 535.5 498.5)"/><path d="M348.5 131.5 1701.68 131.5" stroke="#000000" stroke-miterlimit="8" stroke-dasharray="4 3" fill="none" fill-rule="evenodd"/><path d="M348.5 48.5001 1700.67 48.5002" stroke="#000000" stroke-miterlimit="8" stroke-dasharray="4 3" fill="none" fill-rule="evenodd"/><path d="M348.5 226.5 372.5 226.5 372.5 654.538 349.833 654.538" stroke="#FF0000" stroke-width="3" stroke-miterlimit="8" fill="none" fill-rule="evenodd"/><rect x="45.5001" y="86.5001" width="303" height="91" stroke="#2F528F" stroke-width="1.33333" stroke-miterlimit="8" fill="#4472C4"/><text fill="#FFFFFF" font-family="Calibri,Calibri_MSFontService,sans-serif" font-weight="400" font-size="19" transform="translate(160.887 107)">CRG <tspan x="35.9933" y="0">local</tspan><tspan x="15.42" y="23">x, y, z</tspan><tspan font-size="16" x="-91.7933" y="43">(</tspan><tspan font-size="16" x="-86.96" y="43">may</tspan><tspan font-size="16" x="-55.9267" y="43">be</tspan><tspan font-size="16" x="-35.9267" y="43">rotated</tspan><tspan font-size="16" x="15.6333" y="43">in 2D and </tspan><tspan font-size="16" x="80.9667" y="43">shifted</tspan><tspan font-size="16" x="129.293" y="43">in 3D </tspan><tspan font-size="16" x="-26.7667" y="62">against</tspan><tspan font-size="16" x="22.92" y="62">CRG global)</tspan></text><rect x="45.5001" y="184.5" width="303" height="83" stroke="#2F528F" stroke-width="1.33333" stroke-miterlimit="8" fill="#4472C4"/><text fill="#FFFFFF" font-family="Calibri,Calibri_MSFontService,sans-serif" font-weight="400" font-size="19" transform="translate(129.047 209)">PMAP, CRG global<tspan x="-6.79333" y="23">Projected</tspan><tspan x="70.04" y="23">map</tspan><tspan x="107.873" y="23">data</tspan><tspan font-weight="700" x="-27.0933" y="45">E</tspan><tspan x="-17.9267" y="45">asting</tspan>, <tspan font-weight="700" x="36.5733" y="45">N</tspan><tspan x="48.9067" y="45">orthing</tspan>, <tspan font-weight="700" x="113.447" y="45">h</tspan>eight</text><path d="M101.974 256.278 110.974 256.278 110.974 257.278 101.974 257.278Z" fill="#FFFFFF" fill-rule="evenodd"/><path d="M165.974 256.278 177.974 256.278 177.974 257.278 165.974 257.278Z" fill="#FFFFFF" fill-rule="evenodd"/><path d="M242.974 256.278 252.974 256.278 252.974 257.278 242.974 257.278Z" fill="#FFFFFF" fill-rule="evenodd"/><rect x="203.5" y="366.5" width="332" height="83" stroke="#2F528F" stroke-width="1.33333" stroke-miterlimit="8" fill="#4472C4"/><text fill="#FFFFFF" font-family="Calibri,Calibri_MSFontService,sans-serif" font-weight="400" font-size="19" transform="translate(311.248 391)">ECEF , Datum B<tspan x="-93.1467" y="23">earth</tspan><tspan x="-52.1467" y="23">-</tspan><tspan x="-46.48" y="23">centered</tspan><tspan x="21.2333" y="23">, </tspan><tspan x="30.0667" y="23">earth</tspan>-<tspan x="76.7333" y="23">fixed</tspan><tspan x="117.74" y="23">system</tspan><tspan x="174.653" y="23">data</tspan><tspan x="24.98" y="45">X</tspan><tspan font-size="12" x="34.6467" y="49">B</tspan><tspan x="41.3067" y="45">, Y</tspan><tspan font-size="12" x="59.3067" y="49">B</tspan><tspan x="65.9666" y="45">, Z</tspan><tspan font-size="12" x="83.4666" y="49">B</tspan></text><rect x="45.5001" y="612.5" width="303" height="83" stroke="#2F528F" stroke-width="1.33333" stroke-miterlimit="8" fill="#4472C4"/><text fill="#FFFFFF" font-family="Calibri,Calibri_MSFontService,sans-serif" font-weight="400" font-size="19" transform="translate(134.54 637)">GEOD , Datum A<tspan x="-22.1067" y="23">Geodetic</tspan><tspan x="50.6267" y="23">system</tspan><tspan x="107.54" y="23">data</tspan><tspan x="141.307" y="23">, </tspan><tspan font-weight="700" x="-40.4267" y="45">L</tspan><tspan x="-32.5933" y="45">atitude, </tspan><tspan font-weight="700" x="31.0667" y="45">L</tspan><tspan x="38.9" y="45">ongitude</tspan>, <tspan font-weight="700" x="115.9" y="45">h</tspan>eigth</text><path d="M93.9735 684.316 101.974 684.316 101.974 685.316 93.9735 685.316Z" fill="#FFFFFF" fill-rule="evenodd"/><path d="M165.974 684.316 172.974 684.316 172.974 685.316 165.974 685.316Z" fill="#FFFFFF" fill-rule="evenodd"/><path d="M249.974 684.316 259.974 684.316 259.974 685.316 249.974 685.316Z" fill="#FFFFFF" fill-rule="evenodd"/><rect x="203.5" y="457.5" width="332" height="83" stroke="#2F528F" stroke-width="1.33333" stroke-miterlimit="8" fill="#4472C4"/><text fill="#FFFFFF" font-family="Calibri,Calibri_MSFontService,sans-serif" font-weight="400" font-size="19" transform="translate(310.914 482)">ECEF , Datum A<tspan x="-92.8133" y="23">earth</tspan><tspan x="-51.8133" y="23">-</tspan><tspan x="-46.1467" y="23">centered</tspan><tspan x="21.5667" y="23">, </tspan><tspan x="30.4" y="23">earth</tspan>-<tspan x="77.0667" y="23">fixed</tspan><tspan x="118.073" y="23">system</tspan><tspan x="174.987" y="23">data</tspan><tspan x="25.2867" y="45">X</tspan><tspan font-size="12" x="34.9533" y="49">A</tspan><tspan x="42.2133" y="45">, Y</tspan><tspan font-size="12" x="58.8267" y="49">A</tspan><tspan x="66.0867" y="45">, Z</tspan><tspan font-size="12" x="83.4867" y="49">A</tspan></text><rect x="45.5001" y="18.5001" width="303" height="60" stroke="#2F528F" stroke-width="1.33333" stroke-miterlimit="8" fill="#4472C4"/><text fill="#FFFFFF" font-family="Calibri,Calibri_MSFontService,sans-serif" font-weight="400" font-size="19" transform="translate(125.557 43)">CRG <tspan x="35.9933" y="0">refline</tspan><tspan x="89.08" y="0">system</tspan><tspan x="57.3267" y="23">u, v</tspan><tspan fill="#000000" font-family="Courier New,Courier New_MSFontService,sans-serif" font-size="13" x="-29.9316" y="336">If</tspan><tspan fill="#000000" font-family="Courier New,Courier New_MSFontService,sans-serif" font-size="13" x="-5.9316" y="336">PMAP </tspan><tspan fill="#000000" font-family="Courier New,Courier New_MSFontService,sans-serif" font-size="13" x="-37.9316" y="352">and GEOD </tspan><tspan fill="#000000" font-family="Courier New,Courier New_MSFontService,sans-serif" font-size="13" x="-45.9316" y="368">are</tspan><tspan fill="#000000" font-family="Courier New,Courier New_MSFontService,sans-serif" font-size="13" x="-13.9316" y="368">based</tspan><tspan fill="#000000" font-family="Courier New,Courier New_MSFontService,sans-serif" font-size="13" x="-21.9316" y="384">on </tspan><tspan fill="#000000" font-family="Courier New,Courier New_MSFontService,sans-serif" font-size="13" x="2.0684" y="384">the</tspan><tspan fill="#000000" font-family="Courier New,Courier New_MSFontService,sans-serif" font-size="13" x="-53.9316" y="400">same </tspan><tspan fill="#000000" font-family="Courier New,Courier New_MSFontService,sans-serif" font-size="13" x="-13.9316" y="400">datum</tspan><tspan fill="#000000" font-family="Courier New,Courier New_MSFontService,sans-serif" font-size="13" x="-53.9316" y="416">(</tspan><tspan fill="#000000" font-family="Courier New,Courier New_MSFontService,sans-serif" font-size="13" x="-45.9316" y="416">reference</tspan><tspan fill="#000000" font-family="Courier New,Courier New_MSFontService,sans-serif" font-size="13" x="-53.9316" y="432">ellipsoid) </tspan><tspan fill="#000000" font-family="Courier New,Courier New_MSFontService,sans-serif" font-size="13" x="-53.9316" y="448">e.g. WGS84 </tspan><tspan fill="#000000" font-family="Courier New,Courier New_MSFontService,sans-serif" font-size="13" x="-37.9316" y="464">for</tspan><tspan fill="#000000" font-family="Courier New,Courier New_MSFontService,sans-serif" font-size="13" x="-5.9316" y="464">UTM.</tspan><tspan fill="#000000" font-family="Courier New,Courier New_MSFontService,sans-serif" font-size="13" x="254.937" y="521">If</tspan><tspan fill="#000000" font-family="Courier New,Courier New_MSFontService,sans-serif" font-size="13" x="278.937" y="521">PMAP and GEOD </tspan><tspan fill="#000000" font-family="Courier New,Courier New_MSFontService,sans-serif" font-size="13" x="254.937" y="537">are</tspan><tspan fill="#000000" font-family="Courier New,Courier New_MSFontService,sans-serif" font-size="13" x="286.937" y="537">based</tspan><tspan fill="#000000" font-family="Courier New,Courier New_MSFontService,sans-serif" font-size="13" x="334.937" y="537">on </tspan><tspan fill="#000000" font-family="Courier New,Courier New_MSFontService,sans-serif" font-size="13" x="254.937" y="553">different </tspan><tspan fill="#000000" font-family="Courier New,Courier New_MSFontService,sans-serif" font-size="13" x="334.937" y="553">datum</tspan><tspan fill="#000000" font-family="Courier New,Courier New_MSFontService,sans-serif" font-size="13" x="254.937" y="569">(</tspan><tspan fill="#000000" font-family="Courier New,Courier New_MSFontService,sans-serif" font-size="13" x="262.937" y="569">reference</tspan><tspan fill="#000000" font-family="Courier New,Courier New_MSFontService,sans-serif" font-size="13" x="254.937" y="585">ellipsoid) e.g. </tspan><tspan fill="#000000" font-family="Courier New,Courier New_MSFontService,sans-serif" font-size="13" x="254.937" y="601">BESSEL </tspan><tspan fill="#000000" font-family="Courier New,Courier New_MSFontService,sans-serif" font-size="13" x="310.937" y="601">for</tspan><tspan fill="#000000" font-family="Courier New,Courier New_MSFontService,sans-serif" font-size="13" x="342.937" y="601">GK.</tspan></text><rect x="203.5" y="275.5" width="332" height="83" stroke="#2F528F" stroke-width="1.33333" stroke-miterlimit="8" fill="#4472C4"/><text fill="#FFFFFF" font-family="Calibri,Calibri_MSFontService,sans-serif" font-weight="400" font-size="19" transform="translate(307.288 300)">GEOD , Datum B<tspan x="-22.44" y="23">Geodetic</tspan><tspan x="50.2933" y="23">system</tspan><tspan x="107.207" y="23">data</tspan>, <tspan font-weight="700" x="-40.76" y="45">L</tspan><tspan x="-32.9267" y="45">atitude, </tspan><tspan font-weight="700" x="30.7333" y="45">L</tspan><tspan x="38.5667" y="45">ongitude</tspan><tspan x="106.733" y="45">, </tspan><tspan font-weight="700" x="115.567" y="45">h</tspan>eigth</text><path d="M266.221 347.042 274.221 347.042 274.221 348.042 266.221 348.042Z" fill="#FFFFFF" fill-rule="evenodd"/><path d="M338.221 347.042 346.221 347.042 346.221 348.042 338.221 348.042Z" fill="#FFFFFF" fill-rule="evenodd"/><path d="M423.221 347.042 433.221 347.042 433.221 348.042 423.221 348.042Z" fill="#FFFFFF" fill-rule="evenodd"/><path d="M574 240 574 654.283 571 654.283 571 240ZM565 241.5 572.5 226.5 580 241.5ZM580 654.283 572.5 661.783 565 654.283 572.5 646.783Z" fill="#0070C0"/><path d="M689 240 689 317.052 686 317.052 686 240ZM680 241.5 687.5 226.5 695 241.5ZM695 317.052 687.5 324.552 680 317.052 687.5 309.552Z" fill="#FF0000"/><path d="M1.5 13.5001 1.5001 427.177-1.49989 427.177-1.5 13.5001ZM-7.5 15 0 0 7.5 15ZM7.5001 427.177 0.00010683 434.677-7.49989 427.177 0.000103144 419.677Z" fill="#0070C0" transform="matrix(1 0 0 -1 773.5 653.677)"/><path d="M663 330 663 407.493 660 407.493 660 330ZM654 331.5 661.5 316.5 669 331.5ZM669 407.493 661.5 414.993 654 407.493 661.5 399.993Z" fill="#FF0000"/><path d="M637 421 637 498.545 634 498.545 634 421ZM628 422.5 635.5 407.5 643 422.5ZM643 498.545 635.5 506.045 628 498.545 635.5 491.045Z" fill="#FF0000"/><path d="M612 512 612 653.991 609 653.991 609 512ZM603 513.5 610.5 498.5 618 513.5ZM618 653.991 610.5 661.491 603 653.991 610.5 646.491Z" fill="#FF0000"/><path d="M585.5 350.167C585.5 347.589 587.589 345.5 590.167 345.5L738.833 345.5C741.411 345.5 743.5 347.589 743.5 350.167L743.5 368.833C743.5 371.411 741.411 373.5 738.833 373.5L590.167 373.5C587.589 373.5 585.5 371.411 585.5 368.833Z" stroke="#000000" stroke-width="1.33333" stroke-miterlimit="8" fill="#FFFFFF" fill-rule="evenodd"/><text font-family="Courier New,Courier New_MSFontService,sans-serif" font-weight="400" font-size="13" transform="translate(612.009 363)">map_ecef2geod</text><path d="M584.5 564.167C584.5 561.589 586.589 559.5 589.167 559.5L738.833 559.5C741.411 559.5 743.5 561.589 743.5 564.167L743.5 582.833C743.5 585.411 741.411 587.5 738.833 587.5L589.167 587.5C586.589 587.5 584.5 585.411 584.5 582.833Z" stroke="#000000" stroke-width="1.33333" stroke-miterlimit="8" fill="#FFFFFF" fill-rule="evenodd"/><text font-family="Courier New,Courier New_MSFontService,sans-serif" font-weight="400" font-size="13" transform="translate(611.513 577)">map_geod2ecef</text><path d="M584.5 445.167C584.5 442.589 586.589 440.5 589.167 440.5L738.833 440.5C741.411 440.5 743.5 442.589 743.5 445.167L743.5 463.833C743.5 466.411 741.411 468.5 738.833 468.5L589.167 468.5C586.589 468.5 584.5 466.411 584.5 463.833Z" stroke="#000000" stroke-width="1.33333" stroke-miterlimit="8" fill="#FFFFFF" fill-rule="evenodd"/><text font-family="Courier New,Courier New_MSFontService,sans-serif" font-weight="400" font-size="13" transform="translate(611.513 458)">map_ecef2ecef</text><path d="M546.5 265.334C546.5 262.664 548.664 260.5 551.334 260.5L700.667 260.5C703.336 260.5 705.5 262.664 705.5 265.334L705.5 284.667C705.5 287.336 703.336 289.5 700.667 289.5L551.334 289.5C548.664 289.5 546.5 287.336 546.5 284.667Z" stroke="#000000" stroke-width="1.33333" stroke-miterlimit="8" fill="#FFFFFF" fill-rule="evenodd"/><text font-family="Courier New,Courier New_MSFontService,sans-serif" font-weight="400" font-size="13" transform="translate(573.614 279)">map_geod2pmap</text><path d="M889 226.5 889 302.64 886 302.64 886 226.5ZM880 226.5 887.5 219 895 226.5 887.5 234ZM895 301.14 887.5 316.14 880 301.14Z" fill="#FF0000"/><path d="M864 316.5 864 393.993 861 393.993 861 316.5ZM855 316.5 862.5 309 870 316.5 862.5 324ZM870 392.493 862.5 407.493 855 392.493Z" fill="#FF0000"/><path d="M839 407.5 839 485.045 836 485.045 836 407.5ZM830 407.5 837.5 400 845 407.5 837.5 415ZM845 483.545 837.5 498.545 830 483.545Z" fill="#FF0000"/><path d="M814 498.5 814 639.588 811 639.588 811 498.5ZM805 498.5 812.5 491 820 498.5 812.5 506ZM820 638.088 812.5 653.088 805 638.088Z" fill="#FF0000"/><path d="M788.5 350.167C788.5 347.589 790.589 345.5 793.167 345.5L942.833 345.5C945.411 345.5 947.5 347.589 947.5 350.167L947.5 368.833C947.5 371.411 945.411 373.5 942.833 373.5L793.167 373.5C790.589 373.5 788.5 371.411 788.5 368.833Z" stroke="#000000" stroke-width="1.33333" stroke-miterlimit="8" fill="#FFFFFF" fill-rule="evenodd"/><text font-family="Courier New,Courier New_MSFontService,sans-serif" font-weight="400" font-size="13" transform="translate(815.724 363)">map_geod2ecef</text><path d="M791.5 564.167C791.5 561.589 793.589 559.5 796.167 559.5L945.833 559.5C948.411 559.5 950.5 561.589 950.5 564.167L950.5 582.833C950.5 585.411 948.411 587.5 945.833 587.5L796.167 587.5C793.589 587.5 791.5 585.411 791.5 582.833Z" stroke="#000000" stroke-width="1.33333" stroke-miterlimit="8" fill="#FFFFFF" fill-rule="evenodd"/><text font-family="Courier New,Courier New_MSFontService,sans-serif" font-weight="400" font-size="13" transform="translate(818.202 577)">map_ecef2geod</text><path d="M791.5 445.167C791.5 442.589 793.589 440.5 796.167 440.5L945.833 440.5C948.411 440.5 950.5 442.589 950.5 445.167L950.5 463.833C950.5 466.411 948.411 468.5 945.833 468.5L796.167 468.5C793.589 468.5 791.5 466.411 791.5 463.833Z" stroke="#000000" stroke-width="1.33333" stroke-miterlimit="8" fill="#FFFFFF" fill-rule="evenodd"/><text font-family="Courier New,Courier New_MSFontService,sans-serif" font-weight="400" font-size="13" transform="translate(818.202 458)">map_ecef2ecef</text><path d="M743.5 265.167C743.5 262.589 745.589 260.5 748.167 260.5L897.833 260.5C900.411 260.5 902.5 262.589 902.5 265.167L902.5 283.833C902.5 286.411 900.411 288.5 897.833 288.5L748.167 288.5C745.589 288.5 743.5 286.411 743.5 283.833Z" stroke="#000000" stroke-width="1.33333" stroke-miterlimit="8" fill="#FFFFFF" fill-rule="evenodd"/><text font-family="Courier New,Courier New_MSFontService,sans-serif" font-weight="400" font-size="13" transform="translate(758.253 278)">map_pmap2geod_tm</text><path d="M469 154 469 225.69 466 225.69 466 154ZM460 155.5 467.5 140.5 475 155.5ZM475 225.69 467.5 233.19 460 225.69 467.5 218.19Z" fill="#C00000"/><path d="M634 131.5 634 212.247 631 212.247 631 131.5ZM625 131.5 632.5 124 640 131.5 632.5 139ZM640 210.747 632.5 225.747 625 210.747Z" fill="#C00000"/><path d="M389.5 167.167C389.5 164.589 391.589 162.5 394.167 162.5L542.833 162.5C545.411 162.5 547.5 164.589 547.5 167.167L547.5 185.833C547.5 188.411 545.411 190.5 542.833 190.5L394.167 190.5C391.589 190.5 389.5 188.411 389.5 185.833Z" stroke="#000000" stroke-width="1.33333" stroke-miterlimit="8" fill="#FFFFFF" fill-rule="evenodd"/><text font-family="Courier New,Courier New_MSFontService,sans-serif" font-weight="400" font-size="13" transform="translate(403.989 180)">crg_eval_enh2xyz</text><path d="M553.5 167.167C553.5 164.589 555.589 162.5 558.167 162.5L706.833 162.5C709.411 162.5 711.5 164.589 711.5 167.167L711.5 185.833C711.5 188.411 709.411 190.5 706.833 190.5L558.167 190.5C555.589 190.5 553.5 188.411 553.5 185.833Z" stroke="#000000" stroke-width="1.33333" stroke-miterlimit="8" fill="#FFFFFF" fill-rule="evenodd"/><text font-family="Courier New,Courier New_MSFontService,sans-serif" font-weight="400" font-size="13" transform="translate(568.012 180)">crg_eval_xyz2enh</text><path d="M1.5-3.68692e-07 1.5001 413.632-1.4999 413.632-1.5 3.68692e-07ZM-7.5 1.84346e-06-1.84346e-06-7.5 7.5-1.84346e-06 1.84346e-06 7.5ZM7.5001 412.132 0.000104987 427.132-7.4999 412.132Z" fill="#0070C0" transform="matrix(1 0 0 -1 987.5 654.632)"/><path d="M1016 241 1016 654.587 1013 654.587 1013 241ZM1007 242.5 1014.5 227.5 1022 242.5ZM1022 654.587 1014.5 662.087 1007 654.587 1014.5 647.087Z" fill="#FF0000"/><path d="M1.5 13.5001 1.5001 427.132-1.49989 427.132-1.5 13.5001ZM-7.5 15 0 0 7.5 15ZM7.5001 427.132 0.00010683 434.632-7.49989 427.132 0.000103143 419.632Z" fill="#0070C0" transform="matrix(1 0 0 -1 1135.5 653.632)"/><path d="M1164 226.5 1164 640.086 1161 640.086 1161 226.5ZM1155 226.5 1162.5 219 1170 226.5 1162.5 234ZM1170 638.587 1162.5 653.587 1155 638.587Z" fill="#FF0000"/><path d="M964.5 259.334C964.5 256.664 966.664 254.5 969.334 254.5L1117.67 254.5C1120.34 254.5 1122.5 256.664 1122.5 259.334L1122.5 278.667C1122.5 281.336 1120.34 283.5 1117.67 283.5L969.334 283.5C966.664 283.5 964.5 281.336 964.5 278.667Z" stroke="#000000" stroke-width="1.33333" stroke-miterlimit="8" fill="#FFFFFF" fill-rule="evenodd"/><text font-family="Courier New,Courier New_MSFontService,sans-serif" font-weight="400" font-size="13" transform="translate(975.005 272)">map_global2plocal</text><path d="M1038.5 603.167C1038.5 600.589 1040.59 598.5 1043.17 598.5L1192.83 598.5C1195.41 598.5 1197.5 600.589 1197.5 603.167L1197.5 621.833C1197.5 624.411 1195.41 626.5 1192.83 626.5L1043.17 626.5C1040.59 626.5 1038.5 624.411 1038.5 621.833Z" stroke="#000000" stroke-width="1.33333" stroke-miterlimit="8" fill="#FFFFFF" fill-rule="evenodd"/><text font-family="Courier New,Courier New_MSFontService,sans-serif" font-weight="400" font-size="13" transform="translate(1049.5 616)">map_plocal2global</text><path d="M1009 316.5C1009 313.462 1011.46 311 1014.5 311 1017.54 311 1020 313.462 1020 316.5 1020 319.538 1017.54 322 1014.5 322 1011.46 322 1009 319.538 1009 316.5Z" fill="#FF0000" fill-rule="evenodd"/><path d="M1009 407.5C1009 404.462 1011.46 402 1014.5 402 1017.54 402 1020 404.462 1020 407.5 1020 410.538 1017.54 413 1014.5 413 1011.46 413 1009 410.538 1009 407.5Z" fill="#FF0000" fill-rule="evenodd"/><path d="M1009 498.5C1009 495.462 1011.46 493 1014.5 493 1017.54 493 1020 495.462 1020 498.5 1020 501.538 1017.54 504 1014.5 504 1011.46 504 1009 501.538 1009 498.5Z" fill="#FF0000" fill-rule="evenodd"/><path d="M1156 316.5C1156 313.462 1158.69 311 1162 311 1165.31 311 1168 313.462 1168 316.5 1168 319.538 1165.31 322 1162 322 1158.69 322 1156 319.538 1156 316.5Z" fill="#FF0000" fill-rule="evenodd"/><path d="M1156 407.5C1156 404.462 1158.69 402 1162 402 1165.31 402 1168 404.462 1168 407.5 1168 410.538 1165.31 413 1162 413 1158.69 413 1156 410.538 1156 407.5Z" fill="#FF0000" fill-rule="evenodd"/><path d="M1157 498.5C1157 495.462 1159.46 493 1162.5 493 1165.54 493 1168 495.462 1168 498.5 1168 501.538 1165.54 504 1162.5 504 1159.46 504 1157 501.538 1157 498.5Z" fill="#FF0000" fill-rule="evenodd"/><path d="M1.5 13.5001 1.5001 521.575-1.49989 521.575-1.5 13.5001ZM-7.5 15 0 0 7.5 15ZM7.5001 521.575 0.000106497 529.075-7.49989 521.575 0.000103477 514.075Z" fill="#0070C0" transform="matrix(1 0 0 -1 1379.5 653.075)"/><path d="M1407 131.5 1407 639.575 1404 639.575 1404 131.5ZM1398 131.5 1405.5 124 1413 131.5 1405.5 139ZM1413 638.075 1405.5 653.075 1398 638.075Z" fill="#FF0000"/><path d="M1400 316.5C1400 313.462 1402.46 311 1405.5 311 1408.54 311 1411 313.462 1411 316.5 1411 319.538 1408.54 322 1405.5 322 1402.46 322 1400 319.538 1400 316.5Z" fill="#FF0000" fill-rule="evenodd"/><path d="M1400 407.5C1400 404.462 1402.46 402 1405.5 402 1408.54 402 1411 404.462 1411 407.5 1411 410.538 1408.54 413 1405.5 413 1402.46 413 1400 410.538 1400 407.5Z" fill="#FF0000" fill-rule="evenodd"/><path d="M1400 498.5C1400 495.462 1402.46 493 1405.5 493 1408.54 493 1411 495.462 1411 498.5 1411 501.538 1408.54 504 1405.5 504 1402.46 504 1400 501.538 1400 498.5Z" fill="#FF0000" fill-rule="evenodd"/><path d="M1400 226C1400 222.686 1402.46 220 1405.5 220 1408.54 220 1411 222.686 1411 226 1411 229.314 1408.54 232 1405.5 232 1402.46 232 1400 229.314 1400 226Z" fill="#FF0000" fill-rule="evenodd"/><path d="M1276.5 603.167C1276.5 600.589 1278.59 598.5 1281.17 598.5L1430.83 598.5C1433.41 598.5 1435.5 600.589 1435.5 603.167L1435.5 621.833C1435.5 624.411 1433.41 626.5 1430.83 626.5L1281.17 626.5C1278.59 626.5 1276.5 624.411 1276.5 621.833Z" stroke="#000000" stroke-width="1.33333" stroke-miterlimit="8" fill="#FFFFFF" fill-rule="evenodd"/><text font-family="Consolas,Consolas_MSFontService,sans-serif" font-weight="400" font-size="13" transform="translate(1296.94 617)">crg_eval_xyz2llh</text><path d="M1.5-3.01932e-07 1.5001 508.075-1.4999 508.075-1.5 3.01932e-07ZM-7.5 1.50966e-06-1.50966e-06-7.5 7.5-1.50966e-06 1.50966e-06 7.5ZM7.5001 506.575 0.000104987 521.575-7.4999 506.575Z" fill="#0070C0" transform="matrix(1 0 0 -1 1218.5 654.075)"/><path d="M1247 146 1247 654.075 1244 654.075 1244 146ZM1238 147.5 1245.5 132.5 1253 147.5ZM1253 654.075 1245.5 661.575 1238 654.075 1245.5 646.575Z" fill="#FF0000"/><path d="M1240 316.5C1240 313.462 1242.46 311 1245.5 311 1248.54 311 1251 313.462 1251 316.5 1251 319.538 1248.54 322 1245.5 322 1242.46 322 1240 319.538 1240 316.5Z" fill="#FF0000" fill-rule="evenodd"/><path d="M1240 407.5C1240 404.462 1242.46 402 1245.5 402 1248.54 402 1251 404.462 1251 407.5 1251 410.538 1248.54 413 1245.5 413 1242.46 413 1240 410.538 1240 407.5Z" fill="#FF0000" fill-rule="evenodd"/><path d="M1240 499C1240 495.686 1242.46 493 1245.5 493 1248.54 493 1251 495.686 1251 499 1251 502.314 1248.54 505 1245.5 505 1242.46 505 1240 502.314 1240 499Z" fill="#FF0000" fill-rule="evenodd"/><path d="M1240 226C1240 222.686 1242.46 220 1245.5 220 1248.54 220 1251 222.686 1251 226 1251 229.314 1248.54 232 1245.5 232 1242.46 232 1240 229.314 1240 226Z" fill="#FF0000" fill-rule="evenodd"/><path d="M1197.5 155.167C1197.5 152.589 1199.59 150.5 1202.17 150.5L1351.83 150.5C1354.41 150.5 1356.5 152.589 1356.5 155.167L1356.5 173.833C1356.5 176.411 1354.41 178.5 1351.83 178.5L1202.17 178.5C1199.59 178.5 1197.5 176.411 1197.5 173.833Z" stroke="#000000" stroke-width="1.33333" stroke-miterlimit="8" fill="#FFFFFF" fill-rule="evenodd"/><text font-family="Consolas,Consolas_MSFontService,sans-serif" font-weight="400" font-size="13" transform="translate(1217.58 169)">crg_eval_llh2xyz</text><path d="M1212 226C1212 222.686 1214.69 220 1218 220 1221.31 220 1224 222.686 1224 226 1224 229.314 1221.31 232 1218 232 1214.69 232 1212 229.314 1212 226Z" fill="#0070C0" fill-rule="evenodd"/><path d="M1373 225.5C1373 222.462 1375.46 220 1378.5 220 1381.54 220 1384 222.462 1384 225.5 1384 228.538 1381.54 231 1378.5 231 1375.46 231 1373 228.538 1373 225.5Z" fill="#0070C0" fill-rule="evenodd"/><path d="M634 48.5 634 110.771 631 110.771 631 48.5001ZM625 48.5001 632.5 41.0001 640 48.5 632.5 56.0001ZM640 109.271 632.5 124.271 625 109.271Z" fill="#C00000"/><path d="M1.5314 13.4965 1.69338 83.1263-1.30661 83.1333-1.46859 13.5035ZM-7.46509 15.0174 0 0 7.53487 14.9825ZM7.69337 83.1123 0.210833 90.6297-7.30659 83.1472 0.175939 75.6298Z" fill="#C00000" transform="matrix(-1 0 0 1 467.693 48.5001)"/><path d="M388.5 80.1668C388.5 77.5894 390.589 75.5001 393.167 75.5001L541.833 75.5001C544.411 75.5001 546.5 77.5894 546.5 80.1668L546.5 98.8333C546.5 101.411 544.411 103.5 541.833 103.5L393.167 103.5C390.589 103.5 388.5 101.411 388.5 98.8333Z" stroke="#000000" stroke-width="1.33333" stroke-miterlimit="8" fill="#FFFFFF" fill-rule="evenodd"/><text font-family="Courier New,Courier New_MSFontService,sans-serif" font-weight="400" font-size="13" transform="translate(410.874 93)">crg_eval_xy2uv</text><path d="M553.5 81.1668C553.5 78.5894 555.589 76.5001 558.167 76.5001L706.833 76.5001C709.411 76.5001 711.5 78.5894 711.5 81.1668L711.5 99.8333C711.5 102.411 709.411 104.5 706.833 104.5L558.167 104.5C555.589 104.5 553.5 102.411 553.5 99.8333Z" stroke="#000000" stroke-width="1.33333" stroke-miterlimit="8" fill="#FFFFFF" fill-rule="evenodd"/><text font-family="Courier New,Courier New_MSFontService,sans-serif" font-weight="400" font-size="13" transform="translate(576.012 94)">crg_eval_uv2xy</text></g></svg>